<svg xmlns="http://www.w3.org/2000/svg" viewBox="0 0 320 220" role="img" aria-labelledby="t1 d1">
  <title id="t1">Choose your bond</title>
  <desc id="d1">Cartoon professional selecting state-specific bond on a laptop.</desc>
  <rect width="320" height="220" fill="#fff"/>
  <rect x="24" y="42" width="272" height="152" rx="20" fill="#F5F9FF" stroke="#0B3A6F" stroke-width="2"/>
  <rect x="56" y="64" width="136" height="84" rx="10" fill="#fff" stroke="#1F6FDB" stroke-width="2"/>
  <rect x="64" y="74" width="92" height="10" rx="5" fill="#DCE9FB"/>
  <rect x="64" y="92" width="120" height="8" rx="4" fill="#E7F0FF"/>
  <rect x="64" y="106" width="104" height="8" rx="4" fill="#E7F0FF"/>
  <rect x="64" y="120" width="72" height="8" rx="4" fill="#E7F0FF"/>
  <path d="M216 74h52v44h-52z" fill="#1F6FDB" rx="8"/>
  <path d="M224 84h36v8h-36zm0 14h20v8h-20zm0 14h30v8h-30z" fill="#fff"/>
  <circle cx="240" cy="150" r="26" fill="#0B3A6F"/>
  <circle cx="240" cy="145" r="9" fill="#fff"/>
  <path d="M227 161c4-8 22-8 26 0" stroke="#fff" stroke-width="4" fill="none" stroke-linecap="round"/>
  <circle cx="56" cy="42" r="10" fill="#1F6FDB"/>
</svg>
